# Blender 5.0.1
# www.blender.org
mtllib half_placeholder.mtl
o half_intersection_placeholder
v 0.000000 5.000000 -0.095000
v 0.000000 5.000000 0.005000
v 20.000000 5.000000 -0.095000
v 20.000000 5.000000 0.005000
v 0.000000 -5.000000 -0.095000
v 0.000000 -5.000000 0.005000
v 20.000000 -5.000000 -0.095000
v 20.000000 -5.000000 0.005000
vn -0.0000 1.0000 -0.0000
vn 1.0000 -0.0000 -0.0000
vn -0.0000 -1.0000 -0.0000
vn -1.0000 -0.0000 -0.0000
vn -0.0000 -0.0000 -1.0000
vn -0.0000 -0.0000 1.0000
vt 0.000000 -2.500000
vt 1.000000 -2.500000
vt 1.000000 3.500000
vt 0.000000 3.500000
s 0
usemtl Material.002
f 1/1/1 2/2/1 4/3/1 3/4/1
f 3/1/2 4/2/2 8/3/2 7/4/2
f 7/1/3 8/2/3 6/3/3 5/4/3
f 5/1/4 6/2/4 2/3/4 1/4/4
f 3/1/5 7/2/5 5/3/5 1/4/5
f 8/1/6 4/2/6 2/3/6 6/4/6
